<?xml version="1.0" standalone="no"?>
<!DOCTYPE svg PUBLIC "-//W3C//DTD SVG 20010904//EN"
 "http://www.w3.org/TR/2001/REC-SVG-20010904/DTD/svg10.dtd">
<svg version="1.0" xmlns="http://www.w3.org/2000/svg"
 width="1552.000000pt" height="1552.000000pt" viewBox="0 0 1552.000000 1552.000000"
 preserveAspectRatio="xMidYMid meet">
<metadata>
Created by potrace 1.14, written by Peter Selinger 2001-2017
</metadata>
<g transform="translate(0.000000,1552.000000) scale(0.100000,-0.100000)"
fill="#000000" stroke="none">
<path d="M14784 12538 c-3 -4 -12 -8 -20 -8 -19 0 -207 -89 -215 -102 -3 -5
-9 -9 -13 -9 -24 4 -712 -430 -780 -491 -11 -10 -25 -18 -32 -18 -7 0 -18 -8
-23 -17 -6 -10 -11 -13 -11 -8 0 7 -3 7 -8 0 -4 -6 -34 -28 -67 -50 -33 -22
-68 -48 -79 -57 -11 -10 -28 -20 -38 -24 -10 -3 -18 -10 -18 -15 0 -5 -4 -9
-10 -9 -11 0 -113 -71 -118 -82 -2 -5 -8 -8 -13 -8 -6 0 -15 -5 -22 -11 -7 -6
-73 -53 -147 -105 -74 -52 -142 -100 -150 -107 -9 -6 -45 -32 -80 -57 -36 -24
-70 -49 -76 -55 -6 -5 -20 -16 -30 -23 -115 -78 -279 -198 -302 -219 -7 -7
-17 -13 -22 -13 -5 0 -15 -6 -22 -13 -7 -7 -53 -42 -103 -77 -49 -36 -91 -68
-93 -72 -2 -5 -10 -8 -17 -8 -7 0 -15 -7 -19 -15 -3 -8 -12 -15 -21 -15 -8 0
-15 -3 -15 -7 0 -5 -17 -19 -37 -33 -21 -14 -45 -30 -53 -37 -8 -6 -87 -65
-175 -130 -88 -65 -161 -121 -163 -125 -2 -5 -8 -8 -13 -8 -5 0 -17 -7 -26
-15 -10 -8 -85 -64 -168 -124 -82 -61 -160 -120 -172 -131 -12 -11 -25 -20
-28 -20 -5 0 -146 -105 -182 -135 -7 -5 -19 -16 -27 -22 -8 -7 -17 -13 -20
-13 -4 0 -172 -123 -202 -148 -5 -5 -29 -22 -52 -37 -23 -15 -42 -31 -42 -35
0 -4 -13 -13 -30 -20 -16 -7 -30 -16 -30 -20 0 -4 -29 -27 -65 -51 -36 -23
-65 -46 -65 -51 0 -4 -7 -8 -15 -8 -9 0 -18 -7 -21 -15 -3 -8 -14 -17 -24 -20
-10 -3 -28 -14 -40 -25 -13 -11 -50 -39 -83 -62 -33 -24 -67 -51 -75 -60 -9
-10 -22 -18 -29 -18 -7 0 -13 -4 -13 -10 0 -5 -6 -10 -14 -10 -8 0 -16 -3 -18
-8 -4 -9 -64 -56 -138 -107 -30 -21 -59 -42 -65 -47 -5 -4 -28 -22 -50 -38
-22 -16 -44 -33 -50 -38 -5 -4 -26 -19 -45 -32 -19 -13 -41 -30 -47 -36 -7 -7
-28 -22 -48 -34 -19 -12 -35 -27 -35 -32 0 -6 -3 -9 -6 -5 -4 3 -37 -19 -75
-49 -37 -29 -71 -54 -74 -54 -3 0 -11 -5 -18 -10 -34 -29 -63 -51 -152 -115
-53 -38 -127 -92 -164 -120 -73 -54 -84 -62 -182 -133 -37 -26 -79 -56 -94
-67 -15 -11 -51 -37 -79 -57 -28 -20 -56 -41 -62 -45 -15 -12 -45 -31 -76 -48
-26 -15 -28 -14 -33 8 -4 15 5 48 25 93 47 102 64 139 109 237 23 49 41 90 41
92 0 1 23 52 52 111 28 60 52 114 54 120 1 6 15 39 32 75 59 126 100 215 122
264 24 55 35 80 105 230 25 55 46 101 45 103 0 1 8 21 19 45 10 23 31 71 46
107 15 36 35 83 44 105 51 116 151 377 151 392 0 7 4 21 9 31 13 27 33 85 36
109 2 12 6 27 10 34 4 6 9 23 11 38 2 14 6 42 10 61 12 63 9 131 -11 210 -3
14 -7 30 -8 35 -2 6 -5 15 -8 20 -4 6 -12 31 -20 58 -7 26 -16 47 -20 47 -3 0
-6 6 -6 13 0 15 -121 263 -168 342 -19 33 -38 67 -42 75 -62 128 -257 409
-351 505 -60 62 -173 155 -187 155 -4 0 -18 9 -32 20 -14 11 -29 17 -34 14 -5
-3 -9 -2 -9 3 0 9 -71 33 -99 33 -11 0 -23 5 -26 10 -5 8 -11 8 -20 0 -8 -7
-15 -7 -19 -1 -8 12 -86 -18 -93 -36 -3 -7 -10 -13 -17 -13 -7 0 -27 -16 -46
-35 -19 -19 -39 -35 -43 -35 -16 0 -427 -419 -669 -681 -28 -31 -134 -145
-258 -279 -19 -21 -81 -87 -136 -147 -124 -131 -140 -149 -279 -298 -147 -158
-186 -200 -280 -299 -44 -46 -127 -135 -185 -197 -58 -62 -124 -133 -148 -158
-24 -25 -89 -95 -145 -155 -56 -60 -128 -135 -159 -168 -31 -32 -67 -71 -80
-86 -13 -15 -34 -35 -48 -45 -13 -9 -21 -17 -16 -17 4 0 -7 -15 -26 -33 -18
-18 -107 -111 -198 -206 -91 -95 -214 -224 -275 -286 -60 -62 -134 -138 -163
-169 -29 -31 -57 -56 -63 -56 -5 0 -9 -4 -9 -9 0 -6 -538 -551 -544 -551 -1 0
-49 -46 -107 -102 -90 -88 -212 -203 -379 -358 -21 -19 -73 -66 -116 -105 -43
-38 -88 -80 -100 -93 -13 -12 -25 -22 -28 -22 -3 0 -21 -15 -39 -33 -19 -18
-55 -50 -82 -72 -26 -22 -57 -49 -70 -60 -84 -76 -194 -172 -279 -245 -16 -14
-44 -38 -62 -55 -18 -16 -56 -50 -85 -75 -29 -25 -64 -55 -78 -68 -14 -13 -45
-40 -69 -60 -24 -20 -65 -58 -93 -84 -27 -27 -49 -45 -49 -41 0 3 -11 -6 -25
-21 -14 -15 -25 -25 -25 -23 0 2 -22 -17 -48 -42 -27 -25 -72 -66 -101 -91
-29 -25 -72 -63 -96 -85 -25 -22 -57 -51 -72 -64 -16 -13 -59 -51 -97 -85 -38
-33 -77 -68 -86 -76 -76 -67 -157 -139 -180 -160 -15 -14 -58 -52 -96 -85 -37
-33 -85 -76 -106 -95 -20 -19 -50 -46 -65 -59 -15 -13 -51 -44 -79 -70 -28
-25 -75 -67 -106 -93 -30 -26 -66 -58 -79 -70 -14 -13 -53 -48 -88 -78 -35
-30 -84 -73 -109 -95 -48 -43 -52 -46 -132 -114 -29 -25 -58 -50 -64 -55 -13
-12 -124 -105 -144 -121 -7 -5 -21 -17 -30 -26 -9 -8 -35 -29 -57 -45 -22 -16
-48 -36 -57 -44 -36 -32 -132 -84 -159 -86 -64 -4 -86 89 -44 181 10 22 18 43
17 47 -1 3 5 12 13 18 8 7 15 16 15 21 0 12 185 323 217 365 12 17 23 36 23
42 0 7 3 12 8 12 4 0 23 27 41 60 19 33 39 60 43 60 4 0 8 5 8 11 0 6 19 39
43 73 24 34 46 69 50 79 3 9 11 17 17 17 5 0 10 5 10 10 0 6 18 38 40 71 22
33 40 65 40 70 0 5 4 9 8 9 5 0 17 18 28 40 10 22 22 40 27 40 4 0 7 4 7 9 0
6 14 30 30 54 17 25 30 49 30 55 0 6 3 12 8 14 10 4 78 120 87 147 3 12 11 21
16 21 5 0 9 8 9 19 0 10 6 24 14 30 13 11 31 58 28 74 -1 4 2 7 8 7 11 0 8
129 -3 148 -5 6 -6 12 -2 12 3 0 -6 22 -19 49 -26 51 -89 111 -117 111 -8 0
-19 3 -23 7 -10 10 -34 15 -107 18 -74 4 -151 -17 -215 -58 -22 -13 -41 -24
-44 -24 -14 0 -240 -217 -240 -231 0 -4 -8 -14 -17 -23 -19 -16 -36 -38 -102
-129 -22 -30 -45 -62 -53 -70 -7 -8 -19 -28 -25 -43 -7 -15 -17 -27 -23 -27
-6 0 -8 -4 -5 -10 3 -5 1 -10 -4 -10 -6 0 -11 -5 -11 -10 0 -6 -5 -16 -10 -23
-14 -16 -90 -137 -90 -142 0 -3 -18 -33 -39 -68 -39 -64 -77 -133 -166 -302
-26 -49 -51 -95 -56 -101 -5 -6 -6 -14 -2 -17 3 -4 1 -7 -5 -7 -6 0 -13 -14
-17 -30 -4 -16 -11 -30 -16 -30 -5 0 -9 -4 -9 -9 0 -5 -29 -70 -64 -143 -63
-133 -88 -186 -126 -275 -12 -27 -28 -60 -36 -75 -8 -16 -12 -28 -8 -28 3 0 1
-6 -5 -13 -6 -8 -8 -17 -4 -20 3 -4 2 -7 -4 -7 -9 0 -24 -37 -23 -55 0 -3 -7
-19 -15 -35 -14 -27 -73 -180 -79 -205 -2 -5 -6 -17 -9 -25 -22 -56 -75 -236
-83 -285 -3 -16 -9 -43 -14 -60 -5 -16 -12 -50 -15 -75 -4 -25 -10 -54 -12
-65 -3 -11 -7 -91 -8 -177 -3 -210 25 -348 90 -443 51 -75 149 -125 235 -120
59 4 123 16 145 27 11 6 22 11 25 11 15 -1 147 55 208 88 28 16 52 26 52 22 0
-4 4 -3 8 2 6 9 76 54 170 110 33 20 107 70 112 76 3 3 16 12 29 19 14 7 30
17 35 22 6 5 36 26 66 48 30 22 60 43 65 47 6 4 28 21 50 38 49 36 30 21 215
166 135 106 178 141 250 203 8 7 52 43 98 81 45 37 82 73 82 78 0 6 3 8 6 4 3
-3 13 2 23 11 9 10 43 40 76 67 32 28 68 59 81 70 12 11 52 47 90 80 123 109
243 218 294 265 20 19 70 65 111 102 41 36 97 87 124 113 346 324 321 301 599
569 229 221 306 295 809 789 170 166 381 373 470 460 88 86 164 157 169 157 4
0 8 4 8 9 0 15 35 19 48 5 18 -19 16 -23 -33 -103 -25 -40 -45 -74 -45 -76 0
-2 -13 -23 -29 -47 -86 -130 -161 -249 -161 -257 0 -5 -3 -11 -7 -13 -9 -3
-71 -98 -92 -140 -8 -16 -18 -28 -23 -28 -4 0 -8 -5 -8 -10 0 -6 -17 -37 -38
-70 -97 -153 -112 -179 -112 -189 0 -6 -4 -11 -9 -11 -5 0 -14 -12 -20 -27
-10 -27 -31 -63 -41 -73 -14 -14 -39 -60 -33 -60 5 0 3 -4 -3 -8 -6 -4 -26
-34 -44 -67 -18 -33 -39 -67 -46 -76 -8 -8 -14 -18 -14 -21 0 -4 -31 -61 -70
-128 -38 -67 -70 -126 -70 -130 0 -5 -6 -15 -12 -22 -7 -7 -24 -36 -38 -63
-14 -28 -28 -51 -32 -53 -5 -2 -8 -12 -8 -22 0 -10 -3 -20 -7 -22 -5 -1 -17
-21 -28 -43 -11 -22 -37 -70 -57 -107 -20 -38 -34 -68 -31 -68 3 0 -2 -9 -13
-21 -10 -12 -18 -23 -16 -25 1 -2 -16 -40 -37 -84 -22 -44 -37 -80 -33 -80 4
0 2 -4 -4 -8 -5 -4 -21 -32 -33 -62 -13 -30 -31 -71 -39 -90 -9 -19 -16 -37
-17 -40 0 -3 -3 -10 -7 -16 -4 -6 -16 -37 -28 -70 -12 -32 -25 -68 -30 -79
-10 -24 -45 -118 -46 -125 0 -3 -6 -25 -13 -50 -7 -25 -15 -52 -17 -60 -2 -8
-8 -33 -14 -55 -15 -59 -24 -141 -24 -215 0 -53 6 -79 34 -140 18 -41 40 -80
47 -86 7 -6 13 -14 13 -18 0 -7 65 -97 104 -145 40 -49 172 -177 189 -184 9
-3 17 -11 17 -17 0 -5 5 -10 10 -10 6 0 27 -10 48 -23 70 -44 137 -52 222 -25
57 18 200 89 200 99 0 6 4 8 9 5 5 -3 20 3 34 14 14 11 29 20 33 20 4 0 22 11
40 25 18 14 37 25 43 25 6 0 11 5 11 10 0 6 5 10 11 10 9 0 169 105 206 135 7
6 19 16 27 23 8 6 19 12 25 12 5 0 19 11 32 25 13 13 29 25 36 25 6 0 13 4 15
8 2 5 28 26 58 48 59 42 64 45 97 72 12 10 34 27 48 38 28 20 89 66 115 87 9
7 33 25 55 41 22 17 42 33 45 36 3 3 34 28 70 55 36 28 67 52 70 55 8 8 63 53
100 80 18 14 38 30 44 35 6 6 34 28 61 50 28 22 52 42 55 45 3 3 28 23 55 45
28 22 68 55 91 75 22 19 49 42 60 50 17 13 74 59 153 125 13 11 37 32 53 47
15 15 28 25 28 22 0 -2 15 9 33 25 41 38 66 59 112 96 21 17 48 40 62 52 13
11 42 35 63 53 21 18 50 42 63 53 30 28 67 59 142 122 32 28 66 57 75 65 9 8
38 33 64 55 26 22 56 47 66 55 9 8 38 33 64 55 26 22 65 57 87 78 21 20 41 37
44 37 2 0 17 12 33 28 16 15 47 43 71 62 23 19 54 46 69 60 15 14 52 45 81 70
30 25 61 52 70 61 9 9 57 51 106 94 50 43 100 88 111 101 12 13 24 24 28 24 4
0 25 17 48 38 49 44 43 40 143 127 44 39 86 77 95 85 9 8 40 35 69 60 30 25
71 61 91 80 21 19 55 49 75 65 20 17 51 44 69 60 18 17 46 41 63 55 17 14 55
46 84 71 52 45 185 157 259 219 19 16 49 41 65 54 75 63 224 181 265 209 25
17 47 33 50 37 11 12 65 44 73 42 4 -1 7 2 7 6 0 13 75 44 96 40 23 -4 25 -25
6 -58 -17 -29 -79 -90 -92 -90 -4 0 -10 -3 -12 -8 -3 -6 -22 -23 -115 -97 -7
-5 -28 -23 -46 -40 -18 -16 -68 -61 -112 -100 -77 -69 -371 -360 -430 -426
-104 -118 -211 -234 -217 -237 -5 -2 -8 -11 -8 -19 0 -9 -3 -13 -6 -10 -4 4
-19 -9 -33 -27 -53 -69 -106 -131 -118 -139 -7 -4 -13 -15 -13 -22 0 -8 -7
-15 -15 -15 -8 0 -15 -5 -15 -11 0 -6 -6 -16 -13 -23 -6 -7 -28 -32 -47 -56
-19 -24 -39 -48 -45 -54 -5 -6 -30 -38 -55 -71 -25 -32 -52 -67 -61 -76 -18
-18 -98 -122 -114 -148 -5 -8 -15 -20 -21 -26 -6 -5 -39 -48 -74 -95 -35 -47
-67 -86 -72 -88 -4 -2 -8 -9 -8 -15 0 -7 -10 -23 -22 -37 -30 -33 -80 -104
-189 -270 -49 -74 -93 -139 -97 -145 -4 -5 -17 -26 -28 -45 -10 -19 -25 -41
-32 -48 -6 -7 -12 -19 -12 -26 0 -6 -5 -17 -12 -24 -15 -15 -77 -127 -114
-204 -15 -32 -30 -58 -34 -58 -4 0 -7 -6 -7 -12 0 -7 -17 -48 -38 -92 -20 -43
-38 -83 -39 -90 -2 -6 -8 -24 -16 -41 -43 -100 -87 -257 -108 -380 -8 -47 -7
-281 1 -345 8 -58 30 -141 55 -208 11 -28 17 -52 14 -52 -4 0 -2 -4 3 -8 6 -4
21 -29 35 -57 55 -110 162 -232 255 -292 44 -28 136 -74 158 -79 4 -1 10 -3
15 -4 4 -1 10 -2 15 -1 4 0 7 -4 7 -10 0 -5 4 -8 9 -5 5 3 26 0 47 -8 22 -7
62 -17 89 -21 28 -5 57 -10 65 -12 76 -18 439 -24 560 -9 36 4 79 9 95 11 17
2 30 4 30 5 0 2 9 4 20 5 11 2 32 6 48 9 15 3 39 9 55 12 15 3 34 7 42 9 8 2
15 4 15 5 0 1 14 4 30 6 17 3 37 7 45 11 8 3 25 8 37 10 109 18 718 260 744
296 3 4 14 9 25 11 10 3 48 20 84 39 36 19 101 54 145 77 44 23 98 53 120 66
22 13 54 30 70 38 17 9 37 20 45 25 8 6 78 47 155 93 77 45 142 86 143 90 2 4
10 8 18 8 8 0 14 5 14 10 0 6 3 9 8 8 6 -2 46 21 77 44 6 5 48 33 95 65 95 63
143 96 150 103 3 3 28 21 55 39 47 33 299 231 355 280 14 12 49 43 79 68 72
63 256 247 311 312 79 93 129 164 166 238 31 60 38 85 39 140 3 102 -29 164
-107 204 -73 37 -211 27 -291 -21 -18 -11 -39 -23 -47 -27 -8 -4 -19 -11 -25
-15 -74 -59 -134 -106 -149 -118 -11 -8 -32 -27 -47 -41 -16 -15 -31 -24 -34
-21 -3 3 -5 -1 -5 -8 0 -7 -3 -10 -6 -7 -4 4 -14 -1 -23 -11 -9 -9 -40 -29
-69 -44 -45 -22 -58 -25 -83 -16 -22 7 -29 16 -29 35 0 25 62 159 100 218 11
17 23 37 27 45 3 8 9 17 12 20 13 11 51 70 51 79 0 5 3 11 8 13 4 2 30 35 57
73 27 39 54 73 59 77 6 4 8 8 4 8 -4 0 0 9 10 21 9 11 27 33 39 47 13 15 23
30 23 34 0 4 6 13 13 20 6 7 25 31 41 53 17 22 33 42 36 45 3 3 17 21 30 40
14 19 35 46 48 60 12 14 32 40 43 58 11 17 25 32 30 32 6 0 8 4 5 9 -4 5 -2
11 3 13 5 1 59 66 120 143 61 77 117 147 124 155 7 8 38 47 69 85 31 39 68 84
82 100 14 17 29 35 33 40 5 6 22 26 38 46 46 55 64 78 136 165 63 77 86 105
119 143 41 49 97 115 115 136 11 13 31 39 45 56 14 18 39 48 55 66 17 18 35
39 40 45 29 37 102 125 115 139 21 22 58 68 100 120 19 24 52 62 73 85 20 23
37 44 37 47 0 4 15 21 33 39 18 18 43 49 57 68 14 19 34 44 45 55 12 11 38 43
60 70 21 28 48 60 59 71 12 12 28 31 36 44 8 12 26 34 40 49 14 15 41 47 60
70 19 24 42 51 50 61 8 10 33 39 55 66 121 147 149 180 159 189 7 6 22 25 35
43 13 19 35 46 49 60 13 15 36 43 51 62 14 19 31 40 37 45 6 6 30 35 55 65 24
30 46 57 49 60 3 3 25 30 50 60 25 30 47 57 50 60 3 3 68 81 144 174 76 93
146 178 155 188 9 11 21 25 26 32 6 6 51 61 100 121 49 61 103 126 120 146 36
42 50 59 135 164 36 44 70 85 75 91 6 6 21 25 35 43 14 18 34 42 45 55 11 12
36 42 55 66 57 71 94 115 103 118 4 2 7 8 7 13 0 5 8 17 18 27 9 10 33 37 52
61 19 24 43 52 53 63 9 10 17 20 17 23 0 4 27 38 55 69 6 6 28 34 50 61 22 28
42 52 45 55 3 3 48 59 100 125 52 66 98 122 102 123 5 2 8 8 8 13 0 5 8 17 18
27 9 11 24 28 32 38 14 18 106 138 122 159 4 6 21 26 38 46 16 20 30 41 30 47
0 6 4 12 8 14 5 2 42 48 82 103 41 55 76 102 79 105 3 3 11 12 16 22 6 9 48
72 95 139 47 68 87 128 89 134 2 5 22 36 43 68 21 31 35 57 31 57 -4 0 -3 4 2
8 6 4 17 21 25 37 8 17 19 36 24 44 6 7 11 18 13 25 1 6 9 31 18 56 19 52 14
161 -10 229 -8 23 -14 44 -14 46 0 13 -74 151 -99 183 -82 110 -189 214 -263
256 -69 39 -106 55 -167 71 -64 16 -159 18 -168 3z"/>
</g>
</svg>
